<svg xmlns="http://www.w3.org/2000/svg" width="50" height="50" viewBox="0 0 50 50"><g transform="translate(397 -10270)"><rect width="50" height="50" transform="translate(-397 10270)" fill="#fff" opacity="0.1"/><path d="M.855,20c-.367,0-.764-.214-.766-.56L.016,13.247C.008,13.153,0,13.064,0,12.975v-.753l0-.38a.46.46,0,0,1,0-.068V3A3,3,0,0,1,3,0H17a3,3,0,0,1,3,3v9.976a3,3,0,0,1-3,3H4.847a51.5,51.5,0,0,1-3.542,3.91A.9.9,0,0,1,.855,20ZM9.6,6.652a1,1,0,0,0-1,1v4.39a1,1,0,0,0,1,1h.8a1,1,0,0,0,1-1V7.652a1,1,0,0,0-1-1ZM10,2.121a1.4,1.4,0,1,0,1.4,1.4A1.4,1.4,0,0,0,10,2.121Z" transform="translate(-382.008 10285)" fill="#878787"/></g></svg>
