<svg xmlns="http://www.w3.org/2000/svg" width="20" height="20" viewBox="0 0 20 20"><path d="M35,6A10,10,0,1,0,45,16,10.009,10.009,0,0,0,35,6Zm.119,19.246a9.56,9.56,0,0,1-5.833-2.1c.556-.317,2.817-.754,3.333-1.111.6-.357.4-2.381.4-2.381l-.4-.357a4.125,4.125,0,0,0-.278-1.23,16.381,16.381,0,0,1-.794-1.984.992.992,0,0,1,0-1.587,13.315,13.315,0,0,1-.317-2.381c0-2.222,1.706-3.175,4.008-3.175s3.611,1.111,3.611,3.175c0,.992-.159,2.381-.159,2.381a.992.992,0,0,1,0,1.587,15.712,15.712,0,0,1-.794,1.984,6,6,0,0,0-.278,1.23l-.4.357s-.2,2.024.4,2.381c.516.317,2.738.754,3.294,1.071a9.3,9.3,0,0,1-5.794,2.143Z" transform="translate(-25 -6)" fill="#878787" fill-rule="evenodd"/></svg>