<svg xmlns="http://www.w3.org/2000/svg" width="300" height="400" viewBox="0 0 300 400"><g transform="translate(-533 -184)"><rect width="300" height="400" transform="translate(533 184)"/><text transform="translate(632 375)" fill="#fff" font-size="30" font-family="BebasNeue-Regular, Bebas Neue" letter-spacing="-0.007em"><tspan x="0" y="0">beyond</tspan></text><text transform="translate(638 398)" fill="#fff" font-size="30" font-family="BebasNeue-Regular, Bebas Neue" letter-spacing="-0.007em"><tspan x="0" y="0">design</tspan></text><text transform="translate(607 422)" fill="#fff" font-size="30" font-family="BebasNeue-Regular, Bebas Neue" letter-spacing="-0.007em"><tspan x="0" y="0">asthetics</tspan></text><text transform="translate(711 395)" fill="#ff8316" font-size="30" font-family="BebasNeue-Regular, Bebas Neue" letter-spacing="-0.007em"><tspan x="0" y="0">hook</tspan></text><line y2="95" transform="translate(706.5 335.5)" fill="none" stroke="#fff" stroke-width="1"/><g transform="translate(-864 -199)"><g transform="translate(1462 545)" fill="none" stroke="#000" stroke-width="0.2"><rect width="8" height="8" stroke="none"/><rect x="0.1" y="0.1" width="7.8" height="7.8" fill="none"/></g><g transform="translate(1462 580)" fill="none" stroke="#000" stroke-width="0.2"><rect width="8" height="8" stroke="none"/><rect x="0.1" y="0.1" width="7.8" height="7.8" fill="none"/></g><g transform="translate(1568 608)" fill="none" stroke="#000" stroke-width="0.2"><rect width="8" height="8" stroke="none"/><rect x="0.1" y="0.1" width="7.8" height="7.8" fill="none"/></g><g transform="translate(1520 552)" fill="none" stroke="#000" stroke-width="0.2"><rect width="8" height="8" stroke="none"/><rect x="0.1" y="0.1" width="7.8" height="7.8" fill="none"/></g><g transform="translate(1510 615)" fill="none" stroke="#000" stroke-width="0.2"><rect width="8" height="8" stroke="none"/><rect x="0.1" y="0.1" width="7.8" height="7.8" fill="none"/></g><g transform="translate(1510 615)" fill="none" stroke="#000" stroke-width="0.2"><rect width="8" height="8" stroke="none"/><rect x="0.1" y="0.1" width="7.8" height="7.8" fill="none"/></g><g transform="translate(1508 565)" fill="none" stroke="#000" stroke-width="0.2"><rect width="8" height="8" stroke="none"/><rect x="0.1" y="0.1" width="7.8" height="7.8" fill="none"/></g><g transform="translate(1508 600)" fill="none" stroke="#000" stroke-width="0.2"><rect width="8" height="8" stroke="none"/><rect x="0.1" y="0.1" width="7.8" height="7.8" fill="none"/></g><g transform="translate(1522 628)" fill="none" stroke="#000" stroke-width="0.2"><rect width="8" height="8" stroke="none"/><rect x="0.1" y="0.1" width="7.8" height="7.8" fill="none"/></g><g transform="translate(1504 552)" fill="none" stroke="#000" stroke-width="0.2"><rect width="7" height="8" stroke="none"/><rect x="0.1" y="0.1" width="6.8" height="7.8" fill="none"/></g><g transform="translate(1504 587)" fill="none" stroke="#000" stroke-width="0.2"><rect width="7" height="8" stroke="none"/><rect x="0.1" y="0.1" width="6.8" height="7.8" fill="none"/></g><g transform="translate(1527 615)" fill="none" stroke="#000" stroke-width="0.2"><rect width="7" height="8" stroke="none"/><rect x="0.1" y="0.1" width="6.8" height="7.8" fill="none"/></g><g transform="translate(1548 528)" fill="none" stroke="#000" stroke-width="0.2"><rect width="7" height="8" stroke="none"/><rect x="0.1" y="0.1" width="6.8" height="7.8" fill="none"/></g><g transform="translate(1548 563)" fill="none" stroke="#000" stroke-width="0.2"><rect width="7" height="8" stroke="none"/><rect x="0.1" y="0.1" width="6.8" height="7.8" fill="none"/></g><g transform="translate(1483 591)" fill="none" stroke="#000" stroke-width="0.2"><rect width="7" height="8" stroke="none"/><rect x="0.1" y="0.1" width="6.8" height="7.8" fill="none"/></g><g transform="translate(1534 540)" fill="none" stroke="#000" stroke-width="0.2"><rect width="8" height="7" stroke="none"/><rect x="0.1" y="0.1" width="7.8" height="6.8" fill="none"/></g><g transform="translate(1534 575)" fill="none" stroke="#000" stroke-width="0.2"><rect width="8" height="7" stroke="none"/><rect x="0.1" y="0.1" width="7.8" height="6.8" fill="none"/></g><g transform="translate(1496 603)" fill="none" stroke="#000" stroke-width="0.2"><rect width="8" height="7" stroke="none"/><rect x="0.1" y="0.1" width="7.8" height="6.8" fill="none"/></g><g transform="translate(1524 528)" fill="none" stroke="#000" stroke-width="0.2"><rect width="8" height="8" stroke="none"/><rect x="0.1" y="0.1" width="7.8" height="7.8" fill="none"/></g><g transform="translate(1524 563)" fill="none" stroke="#000" stroke-width="0.2"><rect width="8" height="8" stroke="none"/><rect x="0.1" y="0.1" width="7.8" height="7.8" fill="none"/></g><g transform="translate(1506 591)" fill="none" stroke="#000" stroke-width="0.2"><rect width="8" height="8" stroke="none"/><rect x="0.1" y="0.1" width="7.8" height="7.8" fill="none"/></g><g transform="translate(1516 540)" fill="none" stroke="#000" stroke-width="0.2"><rect width="7" height="7" stroke="none"/><rect x="0.1" y="0.1" width="6.8" height="6.8" fill="none"/></g><g transform="translate(1516 575)" fill="none" stroke="#000" stroke-width="0.2"><rect width="7" height="7" stroke="none"/><rect x="0.1" y="0.1" width="6.8" height="6.8" fill="none"/></g><g transform="translate(1515 603)" fill="none" stroke="#000" stroke-width="0.2"><rect width="7" height="7" stroke="none"/><rect x="0.1" y="0.1" width="6.8" height="6.8" fill="none"/></g><g transform="translate(1498 540)" fill="none" stroke="#000" stroke-width="0.2"><rect width="8" height="7" stroke="none"/><rect x="0.1" y="0.1" width="7.8" height="6.8" fill="none"/></g><g transform="translate(1498 575)" fill="none" stroke="#000" stroke-width="0.2"><rect width="8" height="7" stroke="none"/><rect x="0.1" y="0.1" width="7.8" height="6.8" fill="none"/></g><g transform="translate(1532 603)" fill="none" stroke="#000" stroke-width="0.2"><rect width="8" height="7" stroke="none"/><rect x="0.1" y="0.1" width="7.8" height="6.8" fill="none"/></g><g transform="translate(1493 552)" fill="none" stroke="#000" stroke-width="0.2"><rect width="7" height="8" stroke="none"/><rect x="0.1" y="0.1" width="6.8" height="7.8" fill="none"/></g><g transform="translate(1493 587)" fill="none" stroke="#000" stroke-width="0.2"><rect width="7" height="8" stroke="none"/><rect x="0.1" y="0.1" width="6.8" height="7.8" fill="none"/></g><g transform="translate(1538 615)" fill="none" stroke="#000" stroke-width="0.2"><rect width="7" height="8" stroke="none"/><rect x="0.1" y="0.1" width="6.8" height="7.8" fill="none"/></g><g transform="translate(1484 545)" fill="none" stroke="#000" stroke-width="0.2"><rect width="8" height="8" stroke="none"/><rect x="0.1" y="0.1" width="7.8" height="7.8" fill="none"/></g><g transform="translate(1484 580)" fill="none" stroke="#000" stroke-width="0.2"><rect width="8" height="8" stroke="none"/><rect x="0.1" y="0.1" width="7.8" height="7.8" fill="none"/></g><g transform="translate(1546 608)" fill="none" stroke="#000" stroke-width="0.2"><rect width="8" height="8" stroke="none"/><rect x="0.1" y="0.1" width="7.8" height="7.8" fill="none"/></g><g transform="translate(1478 563)" fill="none" stroke="#000" stroke-width="0.2"><rect width="8" height="8" stroke="none"/><rect x="0.1" y="0.1" width="7.8" height="7.8" fill="none"/></g><g transform="translate(1478 598)" fill="none" stroke="#000" stroke-width="0.2"><rect width="8" height="8" stroke="none"/><rect x="0.1" y="0.1" width="7.8" height="7.8" fill="none"/></g><g transform="translate(1552 626)" fill="none" stroke="#000" stroke-width="0.2"><rect width="8" height="8" stroke="none"/><rect x="0.1" y="0.1" width="7.8" height="7.8" fill="none"/></g><g transform="translate(1473 541)" fill="none" stroke="#000" stroke-width="0.2"><rect width="8" height="7" stroke="none"/><rect x="0.1" y="0.1" width="7.8" height="6.8" fill="none"/></g><g transform="translate(1473 576)" fill="none" stroke="#000" stroke-width="0.2"><rect width="8" height="7" stroke="none"/><rect x="0.1" y="0.1" width="7.8" height="6.8" fill="none"/></g><g transform="translate(1557 604)" fill="none" stroke="#000" stroke-width="0.2"><rect width="8" height="7" stroke="none"/><rect x="0.1" y="0.1" width="7.8" height="6.8" fill="none"/></g><g transform="translate(1470 552)" fill="none" stroke="#000" stroke-width="0.2"><rect width="7" height="8" stroke="none"/><rect x="0.1" y="0.1" width="6.8" height="7.8" fill="none"/></g><g transform="translate(1470 587)" fill="none" stroke="#000" stroke-width="0.2"><rect width="7" height="8" stroke="none"/><rect x="0.1" y="0.1" width="6.8" height="7.8" fill="none"/></g><g transform="translate(1561 615)" fill="none" stroke="#000" stroke-width="0.2"><rect width="7" height="8" stroke="none"/><rect x="0.1" y="0.1" width="6.8" height="7.8" fill="none"/></g><g transform="translate(1466 558)" fill="none" stroke="#000" stroke-width="0.2"><rect width="8" height="7" stroke="none"/><rect x="0.1" y="0.1" width="7.8" height="6.8" fill="none"/></g><g transform="translate(1466 593)" fill="none" stroke="#000" stroke-width="0.2"><rect width="8" height="7" stroke="none"/><rect x="0.1" y="0.1" width="7.8" height="6.8" fill="none"/></g><g transform="translate(1564 621)" fill="none" stroke="#000" stroke-width="0.2"><rect width="8" height="7" stroke="none"/><rect x="0.1" y="0.1" width="7.8" height="6.8" fill="none"/></g><g transform="translate(1488 547)" fill="none" stroke="#000" stroke-width="0.2"><rect width="16" height="15" stroke="none"/><rect x="0.1" y="0.1" width="15.8" height="14.8" fill="none"/></g><g transform="translate(1488 582)" fill="none" stroke="#000" stroke-width="0.2"><rect width="16" height="15" stroke="none"/><rect x="0.1" y="0.1" width="15.8" height="14.8" fill="none"/></g><g transform="translate(1534 610)" fill="none" stroke="#000" stroke-width="0.2"><rect width="16" height="15" stroke="none"/><rect x="0.1" y="0.1" width="15.8" height="14.8" fill="none"/></g><g transform="translate(1511 552)" fill="none" stroke="#000" stroke-width="0.2"><rect width="16" height="23" stroke="none"/><rect x="0.1" y="0.1" width="15.8" height="22.8" fill="none"/></g><g transform="translate(1511 615)" fill="none" stroke="#000" stroke-width="0.2"><rect width="16" height="23" stroke="none"/><rect x="0.1" y="0.1" width="15.8" height="22.8" fill="none"/></g><g transform="translate(1511 587)" fill="none" stroke="#000" stroke-width="0.2"><rect width="16" height="23" stroke="none"/><rect x="0.1" y="0.1" width="15.8" height="22.8" fill="none"/></g><g transform="translate(1528 531)" fill="none" stroke="#000" stroke-width="0.2"><rect width="15" height="23" stroke="none"/><rect x="0.1" y="0.1" width="14.8" height="22.8" fill="none"/></g><g transform="translate(1528 566)" fill="none" stroke="#000" stroke-width="0.2"><rect width="15" height="23" stroke="none"/><rect x="0.1" y="0.1" width="14.8" height="22.8" fill="none"/></g><g transform="translate(1495 594)" fill="none" stroke="#000" stroke-width="0.2"><rect width="15" height="23" stroke="none"/><rect x="0.1" y="0.1" width="14.8" height="22.8" fill="none"/></g><g transform="translate(1535 552)" fill="none" stroke="#000" stroke-width="0.2"><rect width="16" height="23" stroke="none"/><rect x="0.1" y="0.1" width="15.8" height="22.8" fill="none"/></g><g transform="translate(1535 587)" fill="none" stroke="#000" stroke-width="0.2"><rect width="16" height="23" stroke="none"/><rect x="0.1" y="0.1" width="15.8" height="22.8" fill="none"/></g><g transform="translate(1487 615)" fill="none" stroke="#000" stroke-width="0.2"><rect width="16" height="23" stroke="none"/><rect x="0.1" y="0.1" width="15.8" height="22.8" fill="none"/></g><g transform="translate(1544 549)" fill="none" stroke="#000" stroke-width="0.2"><rect width="16" height="23" stroke="none"/><rect x="0.1" y="0.1" width="15.8" height="22.8" fill="none"/></g><g transform="translate(1544 584)" fill="none" stroke="#000" stroke-width="0.2"><rect width="16" height="23" stroke="none"/><rect x="0.1" y="0.1" width="15.8" height="22.8" fill="none"/></g><g transform="translate(1478 612)" fill="none" stroke="#000" stroke-width="0.2"><rect width="16" height="23" stroke="none"/><rect x="0.1" y="0.1" width="15.8" height="22.8" fill="none"/></g><g transform="translate(1551 531)" fill="none" stroke="#000" stroke-width="0.2"><rect width="15" height="23" stroke="none"/><rect x="0.1" y="0.1" width="14.8" height="22.8" fill="none"/></g><g transform="translate(1551 566)" fill="none" stroke="#000" stroke-width="0.2"><rect width="15" height="23" stroke="none"/><rect x="0.1" y="0.1" width="14.8" height="22.8" fill="none"/></g><g transform="translate(1472 594)" fill="none" stroke="#000" stroke-width="0.2"><rect width="15" height="23" stroke="none"/><rect x="0.1" y="0.1" width="14.8" height="22.8" fill="none"/></g><g transform="translate(1560 552)" fill="none" stroke="#000" stroke-width="0.2"><rect width="15" height="23" stroke="none"/><rect x="0.1" y="0.1" width="14.8" height="22.8" fill="none"/></g><g transform="translate(1560 587)" fill="none" stroke="#000" stroke-width="0.2"><rect width="15" height="23" stroke="none"/><rect x="0.1" y="0.1" width="14.8" height="22.8" fill="none"/></g><g transform="translate(1463 615)" fill="none" stroke="#000" stroke-width="0.2"><rect width="15" height="23" stroke="none"/><rect x="0.1" y="0.1" width="14.8" height="22.8" fill="none"/></g></g><g transform="translate(-864 -199)"><g transform="translate(1462 545)" fill="none" stroke="#000" stroke-width="0.7" stroke-dasharray="11 10"><rect width="8" height="8" stroke="none"/><rect x="0.35" y="0.35" width="7.3" height="7.3" fill="none"/></g><g transform="translate(1462 580)" fill="none" stroke="#000" stroke-width="0.7" stroke-dasharray="11 10"><rect width="8" height="8" stroke="none"/><rect x="0.35" y="0.35" width="7.3" height="7.3" fill="none"/></g><g transform="translate(1568 608)" fill="none" stroke="#000" stroke-width="0.7" stroke-dasharray="11 10"><rect width="8" height="8" stroke="none"/><rect x="0.35" y="0.35" width="7.3" height="7.3" fill="none"/></g><g transform="translate(1520 552)" fill="none" stroke="#000" stroke-width="0.7" stroke-dasharray="11 10"><rect width="8" height="8" stroke="none"/><rect x="0.35" y="0.35" width="7.3" height="7.3" fill="none"/></g><g transform="translate(1510 615)" fill="none" stroke="#000" stroke-width="0.7" stroke-dasharray="11 10"><rect width="8" height="8" stroke="none"/><rect x="0.35" y="0.35" width="7.3" height="7.3" fill="none"/></g><g transform="translate(1510 615)" fill="none" stroke="#000" stroke-width="0.7" stroke-dasharray="11 10"><rect width="8" height="8" stroke="none"/><rect x="0.35" y="0.35" width="7.3" height="7.3" fill="none"/></g><g transform="translate(1508 565)" fill="none" stroke="#000" stroke-width="0.7" stroke-dasharray="11 10"><rect width="8" height="8" stroke="none"/><rect x="0.35" y="0.35" width="7.3" height="7.3" fill="none"/></g><g transform="translate(1508 600)" fill="none" stroke="#000" stroke-width="0.7" stroke-dasharray="11 10"><rect width="8" height="8" stroke="none"/><rect x="0.35" y="0.35" width="7.3" height="7.3" fill="none"/></g><g transform="translate(1522 628)" fill="none" stroke="#000" stroke-width="0.7" stroke-dasharray="11 10"><rect width="8" height="8" stroke="none"/><rect x="0.35" y="0.35" width="7.3" height="7.3" fill="none"/></g><g transform="translate(1504 552)" fill="none" stroke="#000" stroke-width="0.7" stroke-dasharray="11 10"><rect width="7" height="8" stroke="none"/><rect x="0.35" y="0.35" width="6.3" height="7.3" fill="none"/></g><g transform="translate(1504 587)" fill="none" stroke="#000" stroke-width="0.7" stroke-dasharray="11 10"><rect width="7" height="8" stroke="none"/><rect x="0.35" y="0.35" width="6.3" height="7.3" fill="none"/></g><g transform="translate(1527 615)" fill="none" stroke="#000" stroke-width="0.7" stroke-dasharray="11 10"><rect width="7" height="8" stroke="none"/><rect x="0.35" y="0.35" width="6.3" height="7.3" fill="none"/></g><g transform="translate(1548 528)" fill="none" stroke="#000" stroke-width="0.7" stroke-dasharray="11 10"><rect width="7" height="8" stroke="none"/><rect x="0.35" y="0.35" width="6.3" height="7.3" fill="none"/></g><g transform="translate(1548 563)" fill="none" stroke="#000" stroke-width="0.7" stroke-dasharray="11 10"><rect width="7" height="8" stroke="none"/><rect x="0.35" y="0.35" width="6.3" height="7.3" fill="none"/></g><g transform="translate(1483 591)" fill="none" stroke="#000" stroke-width="0.7" stroke-dasharray="11 10"><rect width="7" height="8" stroke="none"/><rect x="0.35" y="0.35" width="6.3" height="7.3" fill="none"/></g><g transform="translate(1534 540)" fill="none" stroke="#000" stroke-width="0.7" stroke-dasharray="11 10"><rect width="8" height="7" stroke="none"/><rect x="0.35" y="0.35" width="7.3" height="6.3" fill="none"/></g><g transform="translate(1534 575)" fill="none" stroke="#000" stroke-width="0.7" stroke-dasharray="11 10"><rect width="8" height="7" stroke="none"/><rect x="0.35" y="0.35" width="7.3" height="6.3" fill="none"/></g><g transform="translate(1496 603)" fill="none" stroke="#000" stroke-width="0.7" stroke-dasharray="11 10"><rect width="8" height="7" stroke="none"/><rect x="0.35" y="0.35" width="7.3" height="6.3" fill="none"/></g><g transform="translate(1524 528)" fill="none" stroke="#000" stroke-width="0.7" stroke-dasharray="11 10"><rect width="8" height="8" stroke="none"/><rect x="0.35" y="0.35" width="7.3" height="7.3" fill="none"/></g><g transform="translate(1524 563)" fill="none" stroke="#000" stroke-width="0.7" stroke-dasharray="11 10"><rect width="8" height="8" stroke="none"/><rect x="0.35" y="0.35" width="7.3" height="7.3" fill="none"/></g><g transform="translate(1506 591)" fill="none" stroke="#000" stroke-width="0.7" stroke-dasharray="11 10"><rect width="8" height="8" stroke="none"/><rect x="0.35" y="0.35" width="7.3" height="7.3" fill="none"/></g><g transform="translate(1516 540)" fill="none" stroke="#000" stroke-width="0.7" stroke-dasharray="11 10"><rect width="7" height="7" stroke="none"/><rect x="0.35" y="0.35" width="6.3" height="6.3" fill="none"/></g><g transform="translate(1516 575)" fill="none" stroke="#000" stroke-width="0.7" stroke-dasharray="11 10"><rect width="7" height="7" stroke="none"/><rect x="0.35" y="0.35" width="6.3" height="6.3" fill="none"/></g><g transform="translate(1515 603)" fill="none" stroke="#000" stroke-width="0.7" stroke-dasharray="11 10"><rect width="7" height="7" stroke="none"/><rect x="0.35" y="0.35" width="6.3" height="6.3" fill="none"/></g><g transform="translate(1498 540)" fill="none" stroke="#000" stroke-width="0.7" stroke-dasharray="11 10"><rect width="8" height="7" stroke="none"/><rect x="0.35" y="0.35" width="7.3" height="6.3" fill="none"/></g><g transform="translate(1498 575)" fill="none" stroke="#000" stroke-width="0.7" stroke-dasharray="11 10"><rect width="8" height="7" stroke="none"/><rect x="0.35" y="0.35" width="7.3" height="6.3" fill="none"/></g><g transform="translate(1532 603)" fill="none" stroke="#000" stroke-width="0.7" stroke-dasharray="11 10"><rect width="8" height="7" stroke="none"/><rect x="0.35" y="0.35" width="7.3" height="6.3" fill="none"/></g><g transform="translate(1493 552)" fill="none" stroke="#000" stroke-width="0.7" stroke-dasharray="11 10"><rect width="7" height="8" stroke="none"/><rect x="0.35" y="0.35" width="6.3" height="7.3" fill="none"/></g><g transform="translate(1493 587)" fill="none" stroke="#000" stroke-width="0.7" stroke-dasharray="11 10"><rect width="7" height="8" stroke="none"/><rect x="0.35" y="0.35" width="6.3" height="7.3" fill="none"/></g><g transform="translate(1538 615)" fill="none" stroke="#000" stroke-width="0.7" stroke-dasharray="11 10"><rect width="7" height="8" stroke="none"/><rect x="0.35" y="0.35" width="6.3" height="7.3" fill="none"/></g><g transform="translate(1484 545)" fill="none" stroke="#000" stroke-width="0.7" stroke-dasharray="11 10"><rect width="8" height="8" stroke="none"/><rect x="0.35" y="0.35" width="7.3" height="7.3" fill="none"/></g><g transform="translate(1484 580)" fill="none" stroke="#000" stroke-width="0.7" stroke-dasharray="11 10"><rect width="8" height="8" stroke="none"/><rect x="0.35" y="0.35" width="7.3" height="7.3" fill="none"/></g><g transform="translate(1546 608)" fill="none" stroke="#000" stroke-width="0.7" stroke-dasharray="11 10"><rect width="8" height="8" stroke="none"/><rect x="0.35" y="0.35" width="7.3" height="7.3" fill="none"/></g><g transform="translate(1478 563)" fill="none" stroke="#000" stroke-width="0.7" stroke-dasharray="11 10"><rect width="8" height="8" stroke="none"/><rect x="0.35" y="0.35" width="7.3" height="7.3" fill="none"/></g><g transform="translate(1478 598)" fill="none" stroke="#000" stroke-width="0.7" stroke-dasharray="11 10"><rect width="8" height="8" stroke="none"/><rect x="0.35" y="0.35" width="7.3" height="7.3" fill="none"/></g><g transform="translate(1552 626)" fill="none" stroke="#000" stroke-width="0.7" stroke-dasharray="11 10"><rect width="8" height="8" stroke="none"/><rect x="0.35" y="0.35" width="7.3" height="7.3" fill="none"/></g><g transform="translate(1473 541)" fill="none" stroke="#000" stroke-width="0.7" stroke-dasharray="11 10"><rect width="8" height="7" stroke="none"/><rect x="0.35" y="0.35" width="7.3" height="6.3" fill="none"/></g><g transform="translate(1473 576)" fill="none" stroke="#000" stroke-width="0.7" stroke-dasharray="11 10"><rect width="8" height="7" stroke="none"/><rect x="0.35" y="0.35" width="7.3" height="6.3" fill="none"/></g><g transform="translate(1557 604)" fill="none" stroke="#000" stroke-width="0.7" stroke-dasharray="11 10"><rect width="8" height="7" stroke="none"/><rect x="0.35" y="0.35" width="7.3" height="6.3" fill="none"/></g><g transform="translate(1470 552)" fill="none" stroke="#000" stroke-width="0.7" stroke-dasharray="11 10"><rect width="7" height="8" stroke="none"/><rect x="0.35" y="0.35" width="6.3" height="7.3" fill="none"/></g><g transform="translate(1470 587)" fill="none" stroke="#000" stroke-width="0.7" stroke-dasharray="11 10"><rect width="7" height="8" stroke="none"/><rect x="0.35" y="0.35" width="6.3" height="7.3" fill="none"/></g><g transform="translate(1561 615)" fill="none" stroke="#000" stroke-width="0.7" stroke-dasharray="11 10"><rect width="7" height="8" stroke="none"/><rect x="0.35" y="0.35" width="6.3" height="7.3" fill="none"/></g><g transform="translate(1466 558)" fill="none" stroke="#000" stroke-width="0.7" stroke-dasharray="11 10"><rect width="8" height="7" stroke="none"/><rect x="0.35" y="0.35" width="7.3" height="6.3" fill="none"/></g><g transform="translate(1466 593)" fill="none" stroke="#000" stroke-width="0.7" stroke-dasharray="11 10"><rect width="8" height="7" stroke="none"/><rect x="0.35" y="0.35" width="7.3" height="6.3" fill="none"/></g><g transform="translate(1564 621)" fill="none" stroke="#000" stroke-width="0.7" stroke-dasharray="11 10"><rect width="8" height="7" stroke="none"/><rect x="0.35" y="0.35" width="7.3" height="6.3" fill="none"/></g><g transform="translate(1488 547)" fill="none" stroke="#000" stroke-width="0.7" stroke-dasharray="11 10"><rect width="16" height="15" stroke="none"/><rect x="0.35" y="0.35" width="15.3" height="14.3" fill="none"/></g><g transform="translate(1488 582)" fill="none" stroke="#000" stroke-width="0.7" stroke-dasharray="11 10"><rect width="16" height="15" stroke="none"/><rect x="0.35" y="0.35" width="15.3" height="14.3" fill="none"/></g><g transform="translate(1534 610)" fill="none" stroke="#000" stroke-width="0.7" stroke-dasharray="11 10"><rect width="16" height="15" stroke="none"/><rect x="0.35" y="0.35" width="15.3" height="14.3" fill="none"/></g><g transform="translate(1511 552)" fill="none" stroke="#000" stroke-width="0.7" stroke-dasharray="11 10"><rect width="16" height="23" stroke="none"/><rect x="0.35" y="0.35" width="15.3" height="22.3" fill="none"/></g><g transform="translate(1511 615)" fill="none" stroke="#000" stroke-width="0.7" stroke-dasharray="11 10"><rect width="16" height="23" stroke="none"/><rect x="0.35" y="0.35" width="15.3" height="22.3" fill="none"/></g><g transform="translate(1511 587)" fill="none" stroke="#000" stroke-width="0.7" stroke-dasharray="11 10"><rect width="16" height="23" stroke="none"/><rect x="0.35" y="0.35" width="15.3" height="22.3" fill="none"/></g><g transform="translate(1528 531)" fill="none" stroke="#000" stroke-width="0.7" stroke-dasharray="11 10"><rect width="15" height="23" stroke="none"/><rect x="0.35" y="0.35" width="14.3" height="22.3" fill="none"/></g><g transform="translate(1528 566)" fill="none" stroke="#000" stroke-width="0.7" stroke-dasharray="11 10"><rect width="15" height="23" stroke="none"/><rect x="0.35" y="0.35" width="14.3" height="22.3" fill="none"/></g><g transform="translate(1495 594)" fill="none" stroke="#000" stroke-width="0.7" stroke-dasharray="11 10"><rect width="15" height="23" stroke="none"/><rect x="0.35" y="0.35" width="14.3" height="22.3" fill="none"/></g><g transform="translate(1535 552)" fill="none" stroke="#000" stroke-width="0.7" stroke-dasharray="11 10"><rect width="16" height="23" stroke="none"/><rect x="0.35" y="0.35" width="15.3" height="22.3" fill="none"/></g><g transform="translate(1535 587)" fill="none" stroke="#000" stroke-width="0.7" stroke-dasharray="11 10"><rect width="16" height="23" stroke="none"/><rect x="0.35" y="0.35" width="15.3" height="22.3" fill="none"/></g><g transform="translate(1487 615)" fill="none" stroke="#000" stroke-width="0.7" stroke-dasharray="11 10"><rect width="16" height="23" stroke="none"/><rect x="0.35" y="0.35" width="15.3" height="22.3" fill="none"/></g><g transform="translate(1544 549)" fill="none" stroke="#000" stroke-width="0.7" stroke-dasharray="11 10"><rect width="16" height="23" stroke="none"/><rect x="0.35" y="0.35" width="15.3" height="22.3" fill="none"/></g><g transform="translate(1544 584)" fill="none" stroke="#000" stroke-width="0.7" stroke-dasharray="11 10"><rect width="16" height="23" stroke="none"/><rect x="0.35" y="0.35" width="15.3" height="22.3" fill="none"/></g><g transform="translate(1478 612)" fill="none" stroke="#000" stroke-width="0.7" stroke-dasharray="11 10"><rect width="16" height="23" stroke="none"/><rect x="0.35" y="0.35" width="15.3" height="22.3" fill="none"/></g><g transform="translate(1551 531)" fill="none" stroke="#000" stroke-width="0.7" stroke-dasharray="11 10"><rect width="15" height="23" stroke="none"/><rect x="0.35" y="0.35" width="14.3" height="22.3" fill="none"/></g><g transform="translate(1551 566)" fill="none" stroke="#000" stroke-width="0.7" stroke-dasharray="11 10"><rect width="15" height="23" stroke="none"/><rect x="0.35" y="0.35" width="14.3" height="22.3" fill="none"/></g><g transform="translate(1472 594)" fill="none" stroke="#000" stroke-width="0.7" stroke-dasharray="11 10"><rect width="15" height="23" stroke="none"/><rect x="0.35" y="0.35" width="14.3" height="22.3" fill="none"/></g><g transform="translate(1560 552)" fill="none" stroke="#000" stroke-width="0.7" stroke-dasharray="11 10"><rect width="15" height="23" stroke="none"/><rect x="0.35" y="0.35" width="14.3" height="22.3" fill="none"/></g><g transform="translate(1560 587)" fill="none" stroke="#000" stroke-width="0.7" stroke-dasharray="11 10"><rect width="15" height="23" stroke="none"/><rect x="0.35" y="0.35" width="14.3" height="22.3" fill="none"/></g><g transform="translate(1463 615)" fill="none" stroke="#000" stroke-width="0.7" stroke-dasharray="11 10"><rect width="15" height="23" stroke="none"/><rect x="0.35" y="0.35" width="14.3" height="22.3" fill="none"/></g></g></g></svg>