<svg xmlns="http://www.w3.org/2000/svg" width="46" height="32" viewBox="0 0 46 32"><g transform="translate(-1065 -353)"><rect width="46" height="32" rx="4" transform="translate(1065 353)" fill="#fff" opacity="0"/><g transform="translate(453 -318)"><g transform="translate(635 677)"><path d="M225.279,112a1.279,1.279,0,1,0,1.279,1.279A1.28,1.28,0,0,0,225.279,112Zm0,1.7a.426.426,0,1,1,.426-.426A.427.427,0,0,1,225.279,113.7Z" transform="translate(-212.065 -106.033)"/><path d="M97.279,114.557A1.279,1.279,0,1,0,96,113.279,1.28,1.28,0,0,0,97.279,114.557Zm0-1.7a.426.426,0,1,1-.426.426A.427.427,0,0,1,97.279,112.852Z" transform="translate(-90.885 -106.033)"/><path d="M9.8,0a9.8,9.8,0,1,0,9.8,9.8A9.815,9.815,0,0,0,9.8,0Zm0,18.755A8.951,8.951,0,1,1,18.755,9.8,8.961,8.961,0,0,1,9.8,18.755Z"/><path d="M104.951,208H96.426a.426.426,0,0,0-.426.426,4.689,4.689,0,1,0,9.377,0A.426.426,0,0,0,104.951,208Zm-4.262,4.262a3.841,3.841,0,0,1-3.812-3.41H104.5A3.841,3.841,0,0,1,100.689,212.262Z" transform="translate(-90.885 -196.918)"/></g><path d="M-1979-9484v-3h-3a1,1,0,0,1-1-1,1,1,0,0,1,1-1h3v-3a1,1,0,0,1,1-1,1,1,0,0,1,1,1v3h3a1,1,0,0,1,1,1,1,1,0,0,1-1,1h-3v3a1,1,0,0,1-1,1A1,1,0,0,1-1979-9484Z" transform="translate(2599 10175)" fill="#282828"/></g></g></svg>