<svg xmlns="http://www.w3.org/2000/svg" width="50" height="50" viewBox="0 0 50 50">
  <g id="insight" transform="translate(245 -10270)">
    <path id="Path_1080" data-name="Path 1080" d="M0,0H50V50H0Z" transform="translate(-245 10270)" fill="#fff" opacity="0.1"/>
    <g id="insight-2" data-name="insight" transform="translate(-233 10202.564)">
      <g id="Group_359" data-name="Group 359" transform="translate(1 85.435)">
        <path id="Path_1078" data-name="Path 1078" d="M21.95,59.435a3.048,3.048,0,0,0-2.214,5.144l-2.557,3.854a3.044,3.044,0,0,0-2.843.7l-1.907-1.907a3.05,3.05,0,1,0-5.466-.1l-2.17,1.757a3.051,3.051,0,1,0,1.05,1.277l2.205-1.786a3.043,3.043,0,0,0,3.252.06l2.149,2.149a3.05,3.05,0,1,0,5.152-1.3l2.555-3.851a3.05,3.05,0,1,0,.795-5.994ZM3.05,72.776a1.4,1.4,0,1,1,1.4-1.4A1.4,1.4,0,0,1,3.05,72.776Zm6.671-5.559a1.4,1.4,0,1,1,1.4-1.4A1.4,1.4,0,0,1,9.721,67.217Zm6.671,5.559a1.4,1.4,0,1,1,1.4-1.4A1.4,1.4,0,0,1,16.391,72.776Zm5.559-8.894a1.4,1.4,0,1,1,1.4-1.4A1.4,1.4,0,0,1,21.95,63.882Z" transform="translate(0 -59.435)" fill="#878787"/>
      </g>
    </g>
  </g>
</svg>
