<svg xmlns="http://www.w3.org/2000/svg" width="50" height="50" viewBox="0 0 50 50"><g transform="translate(-11292 -11309)"><rect width="50" height="50" rx="4" transform="translate(11292 11309)" fill="#fff" opacity="0"/><g transform="translate(11250.687 11321)"><path d="M74.894,10.508h-.507V8.135A8.09,8.09,0,0,0,66.551,0c-.119,0-.357,0-.476,0a8.09,8.09,0,0,0-7.836,8.134v2.373h-.507a1.646,1.646,0,0,0-1.419,1.8v11.9a1.654,1.654,0,0,0,1.419,1.809H74.894a1.654,1.654,0,0,0,1.419-1.809v-11.9A1.646,1.646,0,0,0,74.894,10.508Zm-6.973,7.741v3.6a.768.768,0,0,1-.757.76h-1.7a.768.768,0,0,1-.757-.76v-3.6a2.178,2.178,0,0,1,1.37-3.705c.119,0,.357,0,.476,0a2.178,2.178,0,0,1,1.37,3.705Zm3.124-7.741H61.581V8.135a4.733,4.733,0,1,1,9.465,0v2.373Z" transform="translate(0)" fill="#878787"/></g></g></svg>