<svg xmlns="http://www.w3.org/2000/svg" width="50" height="50" viewBox="0 0 50 50"><g transform="translate(-11370 -11309)"><rect width="50" height="50" rx="4" transform="translate(11370 11309)" fill="#fff" opacity="0"/><g transform="translate(11316.915 11319.999)"><path d="M86.666,12.253h-.507V8.136A8.09,8.09,0,0,0,78.323,0c-.119,0-.357,0-.476,0a8.09,8.09,0,0,0-7.836,8.134v.091a1.671,1.671,0,1,0,3.342,0V8.136a4.733,4.733,0,1,1,9.465,0v4.117H69.5a1.647,1.647,0,0,0-1.419,1.8v11.9A1.654,1.654,0,0,0,69.5,27.766H86.666a1.654,1.654,0,0,0,1.419-1.809v-11.9A1.646,1.646,0,0,0,86.666,12.253Zm-6.973,7.741v3.6a.768.768,0,0,1-.757.76h-1.7a.768.768,0,0,1-.757-.76v-3.6a2.178,2.178,0,0,1,1.37-3.705c.119,0,.357,0,.475,0a2.178,2.178,0,0,1,1.37,3.705Z" transform="translate(0 0)" fill="#282828"/></g></g></svg>