<svg xmlns="http://www.w3.org/2000/svg" width="50" height="50" viewBox="0 0 50 50"><g transform="translate(-10105 -13511)"><rect width="50" height="50" rx="4" transform="translate(10105 13511)" fill="#fff"/><path d="M20.062.3a20.062,20.062,0,0,0-6.345,39.1c1,.189,1.371-.431,1.371-.965,0-.476-.017-1.739-.025-3.41-5.581,1.21-6.757-2.692-6.757-2.692a5.317,5.317,0,0,0-2.232-2.934c-1.817-1.244.14-1.219.14-1.219a4.207,4.207,0,0,1,3.073,2.066c1.789,3.068,4.7,2.182,5.843,1.668A4.277,4.277,0,0,1,16.4,29.224c-4.455-.5-9.138-2.227-9.138-9.914a7.74,7.74,0,0,1,2.065-5.383A7.133,7.133,0,0,1,9.5,8.618s1.68-.538,5.517,2.056a18.915,18.915,0,0,1,10.031,0c3.812-2.595,5.492-2.056,5.492-2.056a7.33,7.33,0,0,1,.2,5.31A7.771,7.771,0,0,1,32.8,19.31c0,7.707-4.689,9.4-9.153,9.9A4.8,4.8,0,0,1,25,32.919c0,2.685-.025,4.842-.025,5.494,0,.527.351,1.154,1.379.953A20.037,20.037,0,0,0,20.062.3" transform="translate(10110.292 13515.706)"/></g></svg>