<svg xmlns="http://www.w3.org/2000/svg" width="21" height="20" viewBox="0 0 21 20"><g transform="translate(-968 -438)"><rect width="21" height="20" transform="translate(968 438)" fill="#fff" opacity="0"/><path d="M-9610.045-11470.927a.928.928,0,0,1-.427-.239.945.945,0,0,1-.22-.438,3.213,3.213,0,0,1-.063-.675,3.322,3.322,0,0,1,.063-.689,1,1,0,0,1,.22-.449.9.9,0,0,1,.427-.242,2.568,2.568,0,0,1,.669-.075,2.525,2.525,0,0,1,.663.075.907.907,0,0,1,.424.242.919.919,0,0,1,.225.449,3.133,3.133,0,0,1,.063.689,3.028,3.028,0,0,1-.063.675.874.874,0,0,1-.225.438.938.938,0,0,1-.424.239,2.53,2.53,0,0,1-.663.074A2.572,2.572,0,0,1-9610.045-11470.927Zm.149-3.823a1.206,1.206,0,0,1-.325-.084.37.37,0,0,1-.171-.13.419.419,0,0,1-.061-.176l-.253-8.868a.442.442,0,0,1,.058-.225.435.435,0,0,1,.21-.162,1.7,1.7,0,0,1,.412-.092,5.663,5.663,0,0,1,.649-.029,4.809,4.809,0,0,1,.643.035,1.6,1.6,0,0,1,.406.1.44.44,0,0,1,.214.156.37.37,0,0,1,.063.219l-.254,8.868a.416.416,0,0,1-.058.176.372.372,0,0,1-.17.13,1.244,1.244,0,0,1-.332.084,3.676,3.676,0,0,1-.513.028A3.69,3.69,0,0,1-9609.9-11474.75Z" transform="translate(10588 11926)" fill="#ff004e"/></g></svg>