<svg xmlns="http://www.w3.org/2000/svg" xmlns:xlink="http://www.w3.org/1999/xlink" width="156" height="56.001" viewBox="0 0 156 56.001"><defs><filter id="a" x="0" y="0" width="156" height="56.001" filterUnits="userSpaceOnUse"><feOffset input="SourceAlpha"/><feGaussianBlur stdDeviation="1" result="b"/><feFlood flood-color="#ababab"/><feComposite operator="in" in2="b"/><feComposite in="SourceGraphic"/></filter></defs><g transform="translate(-73 -11)"><rect width="150" height="50" rx="3" transform="translate(76 14)" fill="#959595"/><rect width="46" height="20" transform="translate(131 39)" fill="#ff8316"/><g transform="matrix(1, 0, 0, 1, 73, 11)" filter="url(#a)"><path d="M-4485,31h-144a3,3,0,0,1-3-3V-16a3,3,0,0,1,3-3h144a3,3,0,0,1,3,3V28A3,3,0,0,1-4485,31Zm-98.5-14.5v2h14v-2ZM-4547.315.807a4.975,4.975,0,0,0-2.6.615,3.258,3.258,0,0,0-1.407,1.631,8.147,8.147,0,0,0-.391,2.821V9.2a10.631,10.631,0,0,0,.215,2.475,3.464,3.464,0,0,0,.719,1.407,3.051,3.051,0,0,0,1.41.87,7.438,7.438,0,0,0,2.217.287,5.965,5.965,0,0,0,2.076-.336,3.423,3.423,0,0,0,1.479-1.045,3.619,3.619,0,0,0,.752-1.524,13.454,13.454,0,0,0,.176-2.563V5.592a8.178,8.178,0,0,0-.189-2.051,3.683,3.683,0,0,0-.709-1.309,3.645,3.645,0,0,0-1.469-1.03A5.936,5.936,0,0,0-4547.315.807Zm-17.726,0a4.97,4.97,0,0,0-2.6.615,3.258,3.258,0,0,0-1.407,1.631,8.158,8.158,0,0,0-.39,2.821V9.2a10.61,10.61,0,0,0,.215,2.475,3.462,3.462,0,0,0,.717,1.407,3.058,3.058,0,0,0,1.411.87,7.443,7.443,0,0,0,2.217.287,5.963,5.963,0,0,0,2.075-.336,3.428,3.428,0,0,0,1.48-1.045,3.61,3.61,0,0,0,.752-1.524,13.476,13.476,0,0,0,.175-2.563V5.592a8.14,8.14,0,0,0-.19-2.051,3.626,3.626,0,0,0-.708-1.309,3.675,3.675,0,0,0-1.469-1.03A5.944,5.944,0,0,0-4565.041.807Zm35.124,7.553,1.229,5.64h3.794l-2.081-7.8,1.6-5.161h-3.315l-1.231,3.786,0-6.638h-3.945V14h3.945l0-5.639ZM-4582.736,3.1a.475.475,0,0,1,.5.322,5.754,5.754,0,0,1,.113,1.455V14h3.944V5.064a13.07,13.07,0,0,0-.161-2.514,2.126,2.126,0,0,0-.889-1.216,2.934,2.934,0,0,0-1.762-.527,3.412,3.412,0,0,0-1.265.235,3.539,3.539,0,0,0-1.1.7V-1.811h-3.945V14h3.945V4.751a4.437,4.437,0,0,1,.127-1.318A.483.483,0,0,1-4582.736,3.1Zm35.547,8.837a.45.45,0,0,1-.459-.278,3.8,3.8,0,0,1-.118-1.2V4.615a3.971,3.971,0,0,1,.118-1.255.463.463,0,0,1,.468-.258.445.445,0,0,1,.459.258,4.255,4.255,0,0,1,.107,1.255v5.976a3.341,3.341,0,0,1-.112,1.094A.454.454,0,0,1-4547.188,11.939Zm-17.724,0a.446.446,0,0,1-.459-.278,3.829,3.829,0,0,1-.117-1.2V4.615a4,4,0,0,1,.117-1.255.465.465,0,0,1,.469-.258.444.444,0,0,1,.459.258,4.265,4.265,0,0,1,.107,1.255v5.976a3.366,3.366,0,0,1-.111,1.094A.451.451,0,0,1-4564.913,11.939Z" transform="translate(4635 22)" fill="#fff"/></g></g></svg>