<svg xmlns="http://www.w3.org/2000/svg" width="62.605" height="20.311" viewBox="0 0 62.605 20.311"><defs><style>.a{fill:#959595;}.b{fill:#ff8316;}</style></defs><g transform="translate(-17505.5 -7400.19)"><path class="a" d="M74.5,37.5h-14v-2h14v2Zm26.35-4.266a7.431,7.431,0,0,1-2.217-.287,3.036,3.036,0,0,1-1.411-.869,3.473,3.473,0,0,1-.717-1.407A10.6,10.6,0,0,1,96.29,28.2V24.875a8.146,8.146,0,0,1,.391-2.822,3.255,3.255,0,0,1,1.406-1.631,4.97,4.97,0,0,1,2.6-.615,5.929,5.929,0,0,1,2.281.4,3.572,3.572,0,0,1,2.178,2.339,8.181,8.181,0,0,1,.191,2.05v3.173a13.4,13.4,0,0,1-.176,2.563,3.616,3.616,0,0,1-.752,1.525,3.433,3.433,0,0,1-1.48,1.045A5.978,5.978,0,0,1,100.85,33.234ZM100.822,22.1a.466.466,0,0,0-.469.258,3.908,3.908,0,0,0-.117,1.255v5.85a3.745,3.745,0,0,0,.117,1.2.446.446,0,0,0,.459.277.451.451,0,0,0,.464-.253,3.375,3.375,0,0,0,.111-1.094V23.616a4.306,4.306,0,0,0-.106-1.256A.443.443,0,0,0,100.822,22.1Zm-17.7,11.132a7.439,7.439,0,0,1-2.217-.287,3.056,3.056,0,0,1-1.411-.869,3.448,3.448,0,0,1-.717-1.407,10.589,10.589,0,0,1-.215-2.475V24.875a8.14,8.14,0,0,1,.391-2.822,3.255,3.255,0,0,1,1.406-1.631,4.971,4.971,0,0,1,2.6-.615,5.938,5.938,0,0,1,2.281.4,3.573,3.573,0,0,1,2.177,2.339,8.127,8.127,0,0,1,.191,2.05v3.173a13.553,13.553,0,0,1-.176,2.563,3.618,3.618,0,0,1-.752,1.525A3.433,3.433,0,0,1,85.2,32.9,5.974,5.974,0,0,1,83.126,33.234ZM83.1,22.1a.468.468,0,0,0-.47.258,3.95,3.95,0,0,0-.116,1.255v5.85a3.785,3.785,0,0,0,.116,1.2.448.448,0,0,0,.459.277.455.455,0,0,0,.464-.253,3.283,3.283,0,0,0,.112-1.094V23.616a4.364,4.364,0,0,0-.107-1.256A.443.443,0,0,0,83.1,22.1ZM118.077,33h-3.946V17.19h3.946l0,6.637,1.231-3.786h3.315l-1.6,5.162,2.079,7.8h-3.792l-1.229-5.64L118.077,33ZM64.65,33H60.7V17.19H64.65v3.557a3.494,3.494,0,0,1,1.1-.7,3.4,3.4,0,0,1,1.265-.235,2.932,2.932,0,0,1,1.762.527,2.124,2.124,0,0,1,.889,1.216,13.062,13.062,0,0,1,.16,2.515V33H65.879V23.88a5.707,5.707,0,0,0-.112-1.455.476.476,0,0,0-.5-.322.482.482,0,0,0-.488.331,4.348,4.348,0,0,0-.127,1.319V33Z" transform="translate(17445 7383)"/><path class="b" d="M74.5,37.5h-14v-2h14v2Zm26.351-4.267a7.431,7.431,0,0,1-2.217-.287,3.038,3.038,0,0,1-1.412-.869,3.463,3.463,0,0,1-.718-1.407,10.624,10.624,0,0,1-.214-2.475V25h3.945v4.466a3.83,3.83,0,0,0,.117,1.2.454.454,0,0,0,.46.278.741.741,0,0,0,.188-.022v2.315h-.148Zm-17.726,0a7.439,7.439,0,0,1-2.217-.287,3.049,3.049,0,0,1-1.41-.869,3.45,3.45,0,0,1-.717-1.407,10.561,10.561,0,0,1-.216-2.475V25h3.947v4.466a3.876,3.876,0,0,0,.116,1.2.534.534,0,0,0,.923.024,3.342,3.342,0,0,0,.112-1.094V25h3.946v2.767a13.537,13.537,0,0,1-.175,2.563,3.619,3.619,0,0,1-.753,1.524A3.407,3.407,0,0,1,85.2,32.9,5.971,5.971,0,0,1,83.125,33.233ZM69.826,33H65.879V25h3.947v8Zm-5.178,0H60.7V25h3.946v8Z" transform="translate(17445 7383.001)"/></g></svg>